<mxfile host="app.diagrams.net" modified="2022-09-29T16:56:18.988Z" agent="5.0 (Windows NT 10.0; Win64; x64) AppleWebKit/537.36 (KHTML, like Gecko) Chrome/106.0.0.0 Safari/537.36" etag="lm8S1FuHvICoRdeQjB_M" version="20.3.7" type="github">
  <diagram id="JjL5JUbFUsXd3rydVNTg" name="Page-1">
    <mxGraphModel dx="1038" dy="575" grid="1" gridSize="10" guides="1" tooltips="1" connect="1" arrows="1" fold="1" page="1" pageScale="1" pageWidth="850" pageHeight="1100" math="0" shadow="0">
      <root>
        <mxCell id="0" />
        <mxCell id="1" parent="0" />
        <mxCell id="fDZCLPT1sttQq8ejbjsC-1" value="Ethereum Transaction Record" style="rounded=0;whiteSpace=wrap;html=1;flipV=1;flipH=0;" parent="1" vertex="1">
          <mxGeometry x="290" y="80" width="140" height="60" as="geometry" />
        </mxCell>
        <mxCell id="fDZCLPT1sttQq8ejbjsC-2" value="Testing Dataset&amp;nbsp;" style="rounded=0;whiteSpace=wrap;html=1;flipV=1;flipH=0;" parent="1" vertex="1">
          <mxGeometry x="135" y="180" width="140" height="60" as="geometry" />
        </mxCell>
        <mxCell id="fDZCLPT1sttQq8ejbjsC-43" style="edgeStyle=orthogonalEdgeStyle;rounded=0;orthogonalLoop=1;jettySize=auto;html=1;exitX=0.25;exitY=1;exitDx=0;exitDy=0;entryX=1;entryY=0.5;entryDx=0;entryDy=0;strokeColor=#000000;fontColor=#000000;" parent="1" source="fDZCLPT1sttQq8ejbjsC-1" target="fDZCLPT1sttQq8ejbjsC-2" edge="1">
          <mxGeometry relative="1" as="geometry" />
        </mxCell>
        <mxCell id="fDZCLPT1sttQq8ejbjsC-3" value="Training Dataset" style="rounded=0;whiteSpace=wrap;html=1;flipV=1;flipH=0;" parent="1" vertex="1">
          <mxGeometry x="445" y="180" width="140" height="60" as="geometry" />
        </mxCell>
        <mxCell id="fDZCLPT1sttQq8ejbjsC-42" style="edgeStyle=orthogonalEdgeStyle;rounded=0;orthogonalLoop=1;jettySize=auto;html=1;exitX=0.75;exitY=1;exitDx=0;exitDy=0;entryX=0;entryY=0.5;entryDx=0;entryDy=0;strokeColor=#000000;fontColor=#000000;" parent="1" source="fDZCLPT1sttQq8ejbjsC-1" target="fDZCLPT1sttQq8ejbjsC-3" edge="1">
          <mxGeometry relative="1" as="geometry" />
        </mxCell>
        <mxCell id="fDZCLPT1sttQq8ejbjsC-8" value="Cross Validation Dataset&amp;nbsp;" style="rounded=0;whiteSpace=wrap;html=1;flipV=1;flipH=0;" parent="1" vertex="1">
          <mxGeometry x="290" y="280" width="140" height="60" as="geometry" />
        </mxCell>
        <mxCell id="fDZCLPT1sttQq8ejbjsC-45" style="edgeStyle=orthogonalEdgeStyle;rounded=0;orthogonalLoop=1;jettySize=auto;html=1;exitX=0.5;exitY=1;exitDx=0;exitDy=0;entryX=0.5;entryY=0;entryDx=0;entryDy=0;strokeColor=#000000;fontColor=#000000;" parent="1" source="fDZCLPT1sttQq8ejbjsC-1" target="fDZCLPT1sttQq8ejbjsC-8" edge="1">
          <mxGeometry relative="1" as="geometry" />
        </mxCell>
        <mxCell id="fDZCLPT1sttQq8ejbjsC-10" value="" style="rounded=0;absoluteArcSize=1;html=1;arcSize=10;flipV=1;flipH=0;" parent="1" vertex="1">
          <mxGeometry x="445" y="280" width="140" height="100" as="geometry" />
        </mxCell>
        <mxCell id="fDZCLPT1sttQq8ejbjsC-11" value="" style="html=1;shape=mxgraph.er.anchor;whiteSpace=wrap;" parent="fDZCLPT1sttQq8ejbjsC-10" vertex="1">
          <mxGeometry width="70" height="100" as="geometry" />
        </mxCell>
        <mxCell id="fDZCLPT1sttQq8ejbjsC-18" value="Handling Missing Values" style="rounded=1;absoluteArcSize=1;html=1;arcSize=10;whiteSpace=wrap;points=[];strokeColor=inherit;fillColor=inherit;" parent="fDZCLPT1sttQq8ejbjsC-10" vertex="1">
          <mxGeometry x="7.5" y="5" width="55" height="90" as="geometry" />
        </mxCell>
        <mxCell id="fDZCLPT1sttQq8ejbjsC-13" value="0-1 Scaling" style="rounded=1;absoluteArcSize=1;html=1;arcSize=10;whiteSpace=wrap;points=[];strokeColor=inherit;fillColor=inherit;" parent="fDZCLPT1sttQq8ejbjsC-10" vertex="1">
          <mxGeometry x="80" y="5" width="55" height="90" as="geometry" />
        </mxCell>
        <mxCell id="fDZCLPT1sttQq8ejbjsC-29" style="edgeStyle=orthogonalEdgeStyle;rounded=0;orthogonalLoop=1;jettySize=auto;html=1;exitX=0.5;exitY=1;exitDx=0;exitDy=0;entryX=1.029;entryY=-0.026;entryDx=0;entryDy=0;entryPerimeter=0;strokeColor=#000000;fontColor=#000000;" parent="1" source="fDZCLPT1sttQq8ejbjsC-3" target="fDZCLPT1sttQq8ejbjsC-11" edge="1">
          <mxGeometry relative="1" as="geometry" />
        </mxCell>
        <mxCell id="fDZCLPT1sttQq8ejbjsC-19" value="&lt;font face=&quot;Times New Roman&quot;&gt;&lt;b&gt;With Limited Functionality&lt;/b&gt;&lt;/font&gt;" style="rounded=0;whiteSpace=wrap;html=1;flipV=1;flipH=0;fillColor=#dae8fc;strokeColor=#6c8ebf;strokeWidth=3;" parent="1" vertex="1">
          <mxGeometry x="445" y="420" width="140" height="60" as="geometry" />
        </mxCell>
        <mxCell id="fDZCLPT1sttQq8ejbjsC-24" style="edgeStyle=orthogonalEdgeStyle;rounded=0;orthogonalLoop=1;jettySize=auto;html=1;exitX=0.5;exitY=1;exitDx=0;exitDy=0;entryX=0.5;entryY=0;entryDx=0;entryDy=0;strokeColor=#000000;fontColor=#000000;" parent="1" source="fDZCLPT1sttQq8ejbjsC-10" target="fDZCLPT1sttQq8ejbjsC-19" edge="1">
          <mxGeometry relative="1" as="geometry" />
        </mxCell>
        <mxCell id="fDZCLPT1sttQq8ejbjsC-20" value="&lt;font face=&quot;Times New Roman&quot;&gt;&lt;b&gt;Optimization of Deep Learning Model&amp;nbsp;&lt;/b&gt;&lt;/font&gt;" style="rounded=0;whiteSpace=wrap;html=1;flipV=1;flipH=0;fillColor=#dae8fc;strokeColor=#6c8ebf;strokeWidth=3;" parent="1" vertex="1">
          <mxGeometry x="445" y="520" width="140" height="60" as="geometry" />
        </mxCell>
        <mxCell id="fDZCLPT1sttQq8ejbjsC-31" style="edgeStyle=orthogonalEdgeStyle;rounded=0;orthogonalLoop=1;jettySize=auto;html=1;exitX=0.5;exitY=1;exitDx=0;exitDy=0;entryX=0;entryY=0.5;entryDx=0;entryDy=0;strokeColor=#000000;fontColor=#000000;" parent="1" source="fDZCLPT1sttQq8ejbjsC-8" target="fDZCLPT1sttQq8ejbjsC-20" edge="1">
          <mxGeometry relative="1" as="geometry" />
        </mxCell>
        <mxCell id="fDZCLPT1sttQq8ejbjsC-25" style="edgeStyle=orthogonalEdgeStyle;rounded=0;orthogonalLoop=1;jettySize=auto;html=1;exitX=0.5;exitY=1;exitDx=0;exitDy=0;entryX=0.5;entryY=0;entryDx=0;entryDy=0;strokeColor=#000000;fontColor=#000000;" parent="1" source="fDZCLPT1sttQq8ejbjsC-19" target="fDZCLPT1sttQq8ejbjsC-20" edge="1">
          <mxGeometry relative="1" as="geometry" />
        </mxCell>
        <mxCell id="fDZCLPT1sttQq8ejbjsC-21" value="&lt;font face=&quot;Times New Roman&quot;&gt;&lt;b&gt;Modified DL Fraud Detection Model&lt;/b&gt;&lt;/font&gt;" style="rounded=0;whiteSpace=wrap;html=1;flipV=1;flipH=0;fillColor=#dae8fc;strokeColor=#6c8ebf;strokeWidth=3;" parent="1" vertex="1">
          <mxGeometry x="445" y="620" width="140" height="60" as="geometry" />
        </mxCell>
        <mxCell id="fDZCLPT1sttQq8ejbjsC-30" style="edgeStyle=orthogonalEdgeStyle;rounded=0;orthogonalLoop=1;jettySize=auto;html=1;exitX=0.5;exitY=1;exitDx=0;exitDy=0;entryX=0;entryY=0.5;entryDx=0;entryDy=0;strokeColor=#000000;fontColor=#000000;" parent="1" source="fDZCLPT1sttQq8ejbjsC-2" target="fDZCLPT1sttQq8ejbjsC-21" edge="1">
          <mxGeometry relative="1" as="geometry" />
        </mxCell>
        <mxCell id="fDZCLPT1sttQq8ejbjsC-26" style="edgeStyle=orthogonalEdgeStyle;rounded=0;orthogonalLoop=1;jettySize=auto;html=1;exitX=0.5;exitY=1;exitDx=0;exitDy=0;entryX=0.5;entryY=0;entryDx=0;entryDy=0;strokeColor=#000000;fontColor=#000000;" parent="1" source="fDZCLPT1sttQq8ejbjsC-20" target="fDZCLPT1sttQq8ejbjsC-21" edge="1">
          <mxGeometry relative="1" as="geometry" />
        </mxCell>
        <mxCell id="fDZCLPT1sttQq8ejbjsC-22" value="&lt;font face=&quot;Times New Roman&quot;&gt;&lt;b&gt;Calculation of Performance Evaluation Criteria&lt;/b&gt;&lt;/font&gt;" style="rounded=0;whiteSpace=wrap;html=1;flipV=1;flipH=0;fillColor=#dae8fc;strokeColor=#6c8ebf;strokeWidth=3;" parent="1" vertex="1">
          <mxGeometry x="445" y="720" width="140" height="60" as="geometry" />
        </mxCell>
        <mxCell id="fDZCLPT1sttQq8ejbjsC-27" style="edgeStyle=orthogonalEdgeStyle;rounded=0;orthogonalLoop=1;jettySize=auto;html=1;exitX=0.5;exitY=1;exitDx=0;exitDy=0;entryX=0.5;entryY=0;entryDx=0;entryDy=0;strokeColor=#000000;fontColor=#000000;" parent="1" source="fDZCLPT1sttQq8ejbjsC-21" target="fDZCLPT1sttQq8ejbjsC-22" edge="1">
          <mxGeometry relative="1" as="geometry" />
        </mxCell>
        <mxCell id="fDZCLPT1sttQq8ejbjsC-33" value="&lt;div style=&quot;text-align: center;&quot;&gt;&lt;span style=&quot;background-color: initial;&quot;&gt;Data Preprocessing&lt;/span&gt;&lt;/div&gt;" style="text;whiteSpace=wrap;html=1;fontStyle=1;fontFamily=Times New Roman;" parent="1" vertex="1">
          <mxGeometry x="595" y="310" width="120" height="40" as="geometry" />
        </mxCell>
        <mxCell id="fDZCLPT1sttQq8ejbjsC-34" value="&lt;div style=&quot;text-align: center;&quot;&gt;&lt;span style=&quot;background-color: initial;&quot;&gt;Model Training&lt;/span&gt;&lt;/div&gt;" style="text;whiteSpace=wrap;html=1;fontStyle=1;fontFamily=Times New Roman;" parent="1" vertex="1">
          <mxGeometry x="595" y="530" width="120" height="40" as="geometry" />
        </mxCell>
        <mxCell id="fDZCLPT1sttQq8ejbjsC-35" value="&lt;div style=&quot;text-align: center;&quot;&gt;&lt;span style=&quot;background-color: initial;&quot;&gt;&lt;font face=&quot;Times New Roman&quot;&gt;Feature Selection&amp;nbsp;&lt;/font&gt;&lt;/span&gt;&lt;/div&gt;" style="text;whiteSpace=wrap;html=1;fontStyle=1" parent="1" vertex="1">
          <mxGeometry x="595" y="440" width="120" height="40" as="geometry" />
        </mxCell>
        <mxCell id="fDZCLPT1sttQq8ejbjsC-36" value="&lt;div style=&quot;&quot;&gt;&lt;span style=&quot;background-color: initial;&quot;&gt;Online&lt;/span&gt;&lt;/div&gt;" style="text;whiteSpace=wrap;html=1;align=right;fontStyle=1;fontFamily=Times New Roman;" parent="1" vertex="1">
          <mxGeometry x="200" y="145" width="120" height="40" as="geometry" />
        </mxCell>
        <mxCell id="fDZCLPT1sttQq8ejbjsC-37" value="&lt;div style=&quot;text-align: center;&quot;&gt;&lt;span style=&quot;text-align: right;&quot;&gt;Offline&lt;/span&gt;&lt;br&gt;&lt;/div&gt;" style="text;whiteSpace=wrap;html=1;fontStyle=1;fontFamily=Times New Roman;" parent="1" vertex="1">
          <mxGeometry x="400" y="145" width="120" height="40" as="geometry" />
        </mxCell>
        <mxCell id="fDZCLPT1sttQq8ejbjsC-38" value="&lt;span style=&quot;color: rgb(0, 0, 0); font-size: 12px; font-style: normal; font-variant-ligatures: normal; font-variant-caps: normal; letter-spacing: normal; orphans: 2; text-indent: 0px; text-transform: none; widows: 2; word-spacing: 0px; -webkit-text-stroke-width: 0px; background-color: rgb(248, 249, 250); text-decoration-thickness: initial; text-decoration-style: initial; text-decoration-color: initial; float: none; display: inline !important;&quot;&gt;Offline&lt;/span&gt;" style="text;whiteSpace=wrap;html=1;align=right;fontStyle=1;fontFamily=Times New Roman;" parent="1" vertex="1">
          <mxGeometry x="290" y="230" width="60" height="35" as="geometry" />
        </mxCell>
        <mxCell id="fDZCLPT1sttQq8ejbjsC-46" value="&lt;font face=&quot;Times New Roman&quot;&gt;&lt;b&gt;Ethereum Transaction Record&lt;/b&gt;&lt;/font&gt;" style="rounded=0;whiteSpace=wrap;html=1;flipV=1;flipH=0;fillColor=#dae8fc;strokeColor=#6c8ebf;strokeWidth=3;" parent="1" vertex="1">
          <mxGeometry x="290" y="80" width="140" height="60" as="geometry" />
        </mxCell>
        <mxCell id="fDZCLPT1sttQq8ejbjsC-47" value="&lt;font face=&quot;Times New Roman&quot;&gt;&lt;b&gt;Testing Dataset&amp;nbsp;&lt;/b&gt;&lt;/font&gt;" style="rounded=0;whiteSpace=wrap;html=1;flipV=1;flipH=0;fillColor=#dae8fc;strokeColor=#6c8ebf;strokeWidth=3;" parent="1" vertex="1">
          <mxGeometry x="135" y="180" width="140" height="60" as="geometry" />
        </mxCell>
        <mxCell id="fDZCLPT1sttQq8ejbjsC-48" value="&lt;font face=&quot;Times New Roman&quot;&gt;&lt;b&gt;Cross Validation Dataset&amp;nbsp;&lt;/b&gt;&lt;/font&gt;" style="rounded=0;whiteSpace=wrap;html=1;flipV=1;flipH=0;fillColor=#dae8fc;strokeColor=#6c8ebf;strokeWidth=3;" parent="1" vertex="1">
          <mxGeometry x="290" y="280" width="140" height="60" as="geometry" />
        </mxCell>
        <mxCell id="fDZCLPT1sttQq8ejbjsC-49" value="&lt;font face=&quot;Times New Roman&quot;&gt;&lt;b&gt;Training Dataset&lt;/b&gt;&lt;/font&gt;" style="rounded=0;whiteSpace=wrap;html=1;flipV=1;flipH=0;fillColor=#dae8fc;strokeColor=#6c8ebf;strokeWidth=3;" parent="1" vertex="1">
          <mxGeometry x="445" y="180" width="140" height="60" as="geometry" />
        </mxCell>
        <mxCell id="fDZCLPT1sttQq8ejbjsC-50" value="" style="rounded=0;absoluteArcSize=1;html=1;arcSize=10;flipV=1;flipH=0;fillColor=#dae8fc;strokeColor=#6c8ebf;strokeWidth=3;" parent="1" vertex="1">
          <mxGeometry x="445" y="280" width="140" height="100" as="geometry" />
        </mxCell>
        <mxCell id="fDZCLPT1sttQq8ejbjsC-51" value="" style="html=1;shape=mxgraph.er.anchor;whiteSpace=wrap;" parent="fDZCLPT1sttQq8ejbjsC-50" vertex="1">
          <mxGeometry width="70" height="100" as="geometry" />
        </mxCell>
        <mxCell id="fDZCLPT1sttQq8ejbjsC-52" value="&lt;font face=&quot;Times New Roman&quot;&gt;&lt;b&gt;Handling Missing Values&lt;/b&gt;&lt;/font&gt;" style="rounded=1;absoluteArcSize=1;html=1;arcSize=10;whiteSpace=wrap;points=[];strokeColor=inherit;fillColor=inherit;strokeWidth=3;" parent="fDZCLPT1sttQq8ejbjsC-50" vertex="1">
          <mxGeometry x="7.5" y="5" width="55" height="90" as="geometry" />
        </mxCell>
        <mxCell id="fDZCLPT1sttQq8ejbjsC-53" value="&lt;font face=&quot;Times New Roman&quot;&gt;&lt;b&gt;0-1 Scaling&lt;/b&gt;&lt;/font&gt;" style="rounded=1;absoluteArcSize=1;html=1;arcSize=10;whiteSpace=wrap;points=[];strokeColor=inherit;fillColor=inherit;strokeWidth=3;" parent="fDZCLPT1sttQq8ejbjsC-50" vertex="1">
          <mxGeometry x="80" y="5" width="55" height="90" as="geometry" />
        </mxCell>
      </root>
    </mxGraphModel>
  </diagram>
</mxfile>
